<?xml version="1.0" encoding="UTF-8" standalone="no"?>
<svg width="40px" height="40px" viewBox="0 0 40 40" version="1.1" xmlns="http://www.w3.org/2000/svg" xmlns:xlink="http://www.w3.org/1999/xlink">
    <!-- Generator: Sketch 44.1 (41455) - http://www.bohemiancoding.com/sketch -->
    <title>售后管理</title>
    <desc>Created with Sketch.</desc>
    <defs>
        <polygon id="path-1" points="0 0 0 18.9817468 17.908326 18.9817468 17.908326 0"></polygon>
    </defs>
    <g id="首页入口" stroke="none" stroke-width="1" fill="none" fill-rule="evenodd">
        <g transform="translate(-292.000000, -175.000000)" id="售后管理">
            <g transform="translate(292.000000, 175.000000)">
                <circle id="Oval-2" fill="#A368D8" cx="20" cy="20" r="20"></circle>
                <g id="Page-1" transform="translate(11.000000, 11.000000)">
                    <mask id="mask-2" fill="white">
                        <use xlink:href="#path-1"></use>
                    </mask>
                    <g id="Clip-2"></g>
                    <path d="M2.65610182,10.2827561 L2.65610182,6.0268659 C3.34435636,3.05968092 5.90755636,0.966495954 8.96722909,0.966495954 C11.9940655,0.966495954 14.5318473,3.01651908 15.2523927,5.93252486 L15.2523927,10.2337734 L15.2523927,10.2350913 C16.5119564,10.2350913 17.47032,9.21798728 17.47032,7.96343815 C17.47032,7.06516647 16.9621745,6.29099884 16.2206836,5.92242081 C15.4740655,2.45783121 12.5133382,2.19653179e-05 8.96722909,2.19653179e-05 C5.42395636,2.19653179e-05 2.46442909,2.45398728 1.71552,5.91484277 C0.966174545,6.27946705 0.452792727,7.05813757 0.452792727,7.96343815 C0.452792727,9.21798728 1.41901091,10.2827561 2.65610182,10.2827561 M14.2872655,12.8620335 L13.9955564,12.7045422 L13.7505382,12.9297965 C12.57312,14.0115884 10.8248291,14.6319988 8.95424727,14.6319988 C7.08344727,14.6319988 5.33537455,14.0114786 4.15828364,12.9297965 L3.91304727,12.7045422 L3.62177455,12.8620335 C1.21217455,14.1665538 0.197192727,15.7368543 0.00126545455,18.4627503 C-0.0180436364,18.7287503 0.177665455,18.9604844 0.437738182,18.9801434 C0.449410909,18.9811318 0.461192727,18.9814613 0.472756364,18.9814613 C0.717992727,18.9814613 0.925265455,18.7875075 0.943483636,18.5339179 C1.10821091,16.2387618 1.86039273,14.9857503 3.78421091,13.8726578 C5.12035636,14.9733399 6.98341091,15.5986925 8.95424727,15.5986925 C10.9253018,15.5986925 12.7882473,14.9733399 14.1245018,13.8724382 C16.0477745,14.9855306 16.8001745,16.2387618 16.9647927,18.5334786 C16.9838836,18.7996983 17.2082836,19.0024382 17.4705382,18.9801434 C17.73072,18.9608139 17.92632,18.7287503 17.9070109,18.4627503 C17.7111927,15.737074 16.6961018,14.1668832 14.2872655,12.8620335 M8.95424727,12.6991607 C6.43664727,12.6991607 4.38824727,10.6033399 4.38824727,8.02768671 C4.38824727,5.45181387 6.43664727,3.35599306 8.95424727,3.35599306 C11.4719564,3.35599306 13.5203564,5.45181387 13.5203564,8.02768671 C13.5203564,10.6033399 11.4719564,12.6991607 8.95424727,12.6991607 M8.95424727,2.38951908 C5.91584727,2.38951908 3.44352,4.91882543 3.44352,8.02757688 C3.44352,11.1362185 5.91584727,13.6656347 8.95424727,13.6656347 C11.9928655,13.6656347 14.4650836,11.1362185 14.4650836,8.02757688 C14.4650836,4.91882543 11.9928655,2.38951908 8.95424727,2.38951908" id="Fill-1" fill="#FFFFFF" mask="url(#mask-2)"></path>
                </g>
            </g>
        </g>
    </g>
</svg>